<?xml version="1.0" encoding="utf-8"?>
<!-- Generator: Adobe Illustrator 27.3.1, SVG Export Plug-In . SVG Version: 6.00 Build 0)  -->
<svg version="1.1" id="Warstwa_1" xmlns="http://www.w3.org/2000/svg" xmlns:xlink="http://www.w3.org/1999/xlink" x="0px" y="0px"
	 viewBox="0 0 249.71 114.88" style="enable-background:new 0 0 249.71 114.88;" xml:space="preserve">
<style type="text/css">
	.st0{display:none;fill:#FFFFFF;}
	.st1{fill:none;stroke:#000000;stroke-miterlimit:10;}
	.st2{fill:url(#SVGID_1_);}
	.st3{fill:url(#SVGID_00000093135001769138433170000010985949031221130943_);}
	.st4{fill:url(#SVGID_00000127023803749362297390000015986687756742306486_);}
	.st5{fill:url(#SVGID_00000140722815493491469720000010953968352226984862_);}
	.st6{fill:url(#SVGID_00000067949101688797412310000007087056312230408357_);}
	.st7{fill:url(#SVGID_00000041279708968941640570000011621341825405875638_);}
	.st8{fill:url(#SVGID_00000133521456544605697980000004809744141775043261_);}
	.st9{fill:url(#SVGID_00000014592680131482206470000007991369157235984269_);}
	.st10{fill:url(#SVGID_00000049205637302105045990000015467884217417439883_);}
	.st11{fill:url(#SVGID_00000120544524198663077750000006137905478749985442_);}
	.st12{fill:url(#SVGID_00000011026457213047402260000003157196084987127192_);}
	.st13{fill:url(#SVGID_00000103239240641884299860000012698670831318471042_);}
	.st14{fill:url(#SVGID_00000178187606363625612840000007056969972132631460_);}
	.st15{fill:url(#SVGID_00000178896939038406514910000002661558462314924684_);}
	.st16{fill:url(#SVGID_00000029004718950832257690000004577046413912993178_);}
	.st17{fill:url(#SVGID_00000103244045001333741820000009951634076710365349_);}
	.st18{fill:url(#SVGID_00000134952315129994662660000017812738752491065523_);}
	.st19{fill:url(#SVGID_00000029006861253552313580000005089195463886625195_);}
	.st20{fill:url(#SVGID_00000177464061582302991210000002224151425859311277_);}
	.st21{fill:url(#SVGID_00000135677187168373643270000002924134814246722454_);}
	.st22{fill:url(#SVGID_00000078746228111785663290000011630009759996922774_);}
	.st23{fill:url(#SVGID_00000059988346736887783610000012392270113463524522_);}
	.st24{fill:url(#SVGID_00000071549389866773443410000003715457888263345328_);}
	.st25{fill:url(#SVGID_00000150819741935217629280000000953755726369403553_);}
</style>
<rect x="-106.19" y="-82.6" class="st0" width="488.87" height="286.17"/>
<path class="st1" d="M333.86,85.3"/>
<g>
	<g>
		<linearGradient id="SVGID_1_" gradientUnits="userSpaceOnUse" x1="38.5886" y1="60.3694" x2="61.0097" y2="60.3694">
			<stop  offset="0" style="stop-color:#FFEF26"/>
			<stop  offset="0.0595" style="stop-color:#FFE000"/>
			<stop  offset="0.1303" style="stop-color:#FFD300"/>
			<stop  offset="0.2032" style="stop-color:#FECB00"/>
			<stop  offset="0.2809" style="stop-color:#FDC800"/>
			<stop  offset="0.6685" style="stop-color:#F18F34"/>
			<stop  offset="0.8876" style="stop-color:#E95F32"/>
			<stop  offset="1" style="stop-color:#E3312D"/>
		</linearGradient>
		<path class="st2" d="M57.97,69.39c-0.85,2.54-6.61,4.04-11.18,3.88c-0.27,0-0.54-0.01-0.81-0.03c-0.04,0-0.09,0-0.13-0.01
			c-1.23-0.09-2.5-0.36-3.7-0.78h-0.01c-0.95-0.33-1.85-0.75-2.66-1.25l-0.03-0.02c-0.12-0.05-0.24-0.1-0.37-0.13
			c-0.01,0-0.01,0-0.01,0c-0.39-0.12-0.81-0.12-1.2-0.03c-0.15,0.03-0.3,0.07-0.45,0.14c-0.04,0.02-0.12,0.05-0.21,0.11
			c-0.07,0.04-0.13,0.08-0.19,0.12c-0.06,0.04-0.12,0.09-0.18,0.14c-0.1,0.08-0.21,0.19-0.3,0.32c-0.04,0.05-0.08,0.12-0.12,0.18
			c-0.03,0.05-0.05,0.1-0.08,0.15c-0.04,0.08-0.07,0.16-0.1,0.24c-0.03,0.09-0.05,0.18-0.06,0.27c-0.02,0.09-0.02,0.18-0.02,0.27
			c0,0,0,0.01,0,0.01c0,0.1,0.01,0.19,0.02,0.29c0.01,0.1,0.04,0.2,0.07,0.3c0.02,0.1,0.06,0.19,0.1,0.28
			c0.01,0.01,0.01,0.02,0.01,0.02c0.03,0.07,0.07,0.14,0.11,0.21c0.01,0.03,0.02,0.05,0.04,0.07c0.07,0.11,0.14,0.21,0.22,0.3
			c0.07,0.09,0.15,0.16,0.23,0.23c0.08,0.08,0.18,0.15,0.26,0.2c0.17,0.12,0.34,0.19,0.48,0.25c0.08,0.03,0.15,0.05,0.2,0.07
			c0.12,0.04,0.21,0.05,0.25,0.06c1.01,0.66,2.51,1.21,4.15,1.58c0.08,0.02,0.17,0.04,0.25,0.05c1.26,0.27,2.59,0.43,3.85,0.44h0.1
			c0.16,0,0.34,0,0.52-0.01c2.57-0.07,4.62-0.61,6.23-1.46c0.01-0.01,0.02-0.01,0.04-0.02c0.16-0.09,0.35-0.19,0.55-0.32
			c0.08-0.05,0.18-0.12,0.27-0.17c0.03-0.03,0.07-0.05,0.1-0.07c0.08-0.05,0.17-0.12,0.26-0.18c0.12-0.09,0.25-0.18,0.37-0.29
			c0.12-0.09,0.22-0.19,0.33-0.29c0.01-0.01,0.02-0.02,0.04-0.03c0.12-0.1,0.22-0.21,0.32-0.31l0.05-0.05
			c0.08-0.08,0.17-0.18,0.25-0.27c0.04-0.05,0.08-0.09,0.12-0.14c0.08-0.09,0.16-0.19,0.23-0.28c0.15-0.19,0.28-0.38,0.41-0.56
			c-0.01-0.01-0.01-0.01,0-0.01c0.09-0.14,0.18-0.27,0.25-0.41c0.1-0.18,0.2-0.35,0.29-0.52c0.07-0.13,0.13-0.27,0.19-0.4
			c0.01-0.02,0.02-0.04,0.02-0.06c0.07-0.15,0.13-0.3,0.18-0.45c0.22-0.56,0.37-1.12,0.47-1.69C57.98,69.36,57.97,69.37,57.97,69.39
			z M58.55,46.99c0-0.01,0-0.02-0.01-0.04c-0.02-0.08-0.03-0.16-0.05-0.24c-0.05-0.16-0.11-0.3-0.16-0.4
			c-0.02-0.05-0.05-0.11-0.09-0.16c-0.04-0.07-0.09-0.14-0.14-0.21c-0.21-0.27-0.46-0.49-0.76-0.66c-0.07-0.04-0.15-0.08-0.22-0.12
			c-0.01-0.01-0.02-0.01-0.02-0.01c-0.06-0.02-0.12-0.05-0.18-0.07c-0.04-0.01-0.07-0.02-0.1-0.04c-0.04-0.01-0.09-0.02-0.13-0.04
			c-0.02-0.01-0.03-0.01-0.04-0.01c-0.95-0.53-2.89-1.36-5.93-1.55c-0.42-0.03-0.86-0.05-1.32-0.04c-1.88,0-3.59,0.33-5.07,0.93
			c-0.03,0.01-0.08,0.04-0.14,0.07c-3.11,1.31-5.15,3.86-5.49,7.09c0.01-0.01,0.01-0.01,0.01-0.01c0.28-1.03,1.24-1.65,2.43-2.21
			c3.9-1.84,7.53-1.82,8.12-1.81c0.35,0,0.68,0.01,1.01,0.04c0.24,0.01,0.47,0.04,0.7,0.07c0.07,0.01,0.13,0.02,0.2,0.02
			c0.12,0.02,0.24,0.04,0.34,0.05c0.26,0.04,0.47,0.08,0.62,0.12c0.02,0.01,0.05,0.01,0.08,0.02c0.16,0.04,0.3,0.07,0.45,0.12
			c0.17,0.04,0.34,0.09,0.5,0.15c0.63,0.19,1.18,0.42,1.64,0.64c0.01,0.01,0.02,0.01,0.04,0.02c0.16,0.08,0.31,0.17,0.44,0.25
			c0.06,0.03,0.12,0.05,0.19,0.07h0.01c0.09,0.04,0.3,0.1,0.59,0.14c0.04,0.01,0.09,0.01,0.14,0.01c0.05,0.01,0.11,0.01,0.16,0.01
			c0.18,0,0.36-0.02,0.53-0.06c0.01,0,0.02-0.01,0.04-0.01c0.05-0.01,0.1-0.02,0.15-0.04c0.06-0.02,0.12-0.04,0.18-0.07
			c0.02-0.01,0.05-0.02,0.1-0.04c0.04-0.02,0.08-0.04,0.13-0.06c0.15-0.08,0.33-0.19,0.5-0.35c0.05-0.05,0.11-0.1,0.16-0.16
			c0.05-0.05,0.1-0.11,0.14-0.17c0.04-0.06,0.08-0.12,0.11-0.18c0.03-0.05,0.06-0.12,0.08-0.18c0.03-0.07,0.05-0.13,0.07-0.2
			C58.58,47.46,58.59,47.23,58.55,46.99z M55.05,60.91c-0.12-0.1-0.24-0.21-0.37-0.3c-0.05-0.04-0.11-0.08-0.17-0.13
			c-0.9-0.62-2.34-1.09-5.05-1.96c-3.73-1.2-4.39-1.08-6.54-2.1c-3.66-1.74-4.19-3.22-4.3-3.93c0,0.25,0.01,0.49,0.02,0.73
			c0.01,0.02,0.01,0.04,0.01,0.07c0.02,0.22,0.05,0.44,0.09,0.64c0.13,0.81,0.37,1.56,0.73,2.27c0.07,0.15,0.15,0.29,0.21,0.41
			c0.03,0.05,0.05,0.1,0.08,0.14c0.02,0.04,0.05,0.09,0.08,0.13c1.21,1.88,3.32,3.4,6.41,4.64c0.02,0.01,0.03,0.01,0.04,0.02
			c0.02,0.01,0.04,0.01,0.05,0.02c2.01,0.75,2.63,0.52,5.83,1.73c0.78,0.3,2.17,0.85,3.66,2c1.98,1.52,2.23,2.6,2.23,3.05
			c0.02-0.29,0.02-0.5,0.02-0.6C58.12,64.87,57.18,62.69,55.05,60.91z M58.1,68.35c-0.01,0.14-0.02,0.3-0.05,0.47
			c-0.01,0.17-0.04,0.34-0.07,0.52C58.14,68.83,58.1,68.35,58.1,68.35z M38.62,52.46c0-0.12,0-0.24,0.01-0.36
			c0.01-0.13,0.01-0.26,0.02-0.39c0.01-0.06,0.01-0.12,0.02-0.19C38.56,51.94,38.6,52.29,38.62,52.46z"/>
		
			<linearGradient id="SVGID_00000182517293808932231760000005102438001097648264_" gradientUnits="userSpaceOnUse" x1="38.6293" y1="53.974" x2="54.5134" y2="53.974">
			<stop  offset="0" style="stop-color:#FFEF26"/>
			<stop  offset="0" style="stop-color:#FFE000"/>
			<stop  offset="0" style="stop-color:#FFD300"/>
			<stop  offset="0" style="stop-color:#FECB00"/>
			<stop  offset="0" style="stop-color:#FDC800"/>
			<stop  offset="0" style="stop-color:#F18F34"/>
			<stop  offset="0.2554" style="stop-color:#E95F32"/>
			<stop  offset="1" style="stop-color:#E3312D"/>
		</linearGradient>
		<path style="fill:url(#SVGID_00000182517293808932231760000005102438001097648264_);" d="M54.51,60.48
			c-0.9-0.62-2.34-1.09-5.05-1.96c-3.73-1.2-4.39-1.08-6.54-2.1c-3.66-1.74-4.19-3.22-4.3-3.93c0-0.13,0.01-0.26,0.01-0.39
			c0.01-0.13,0.01-0.26,0.02-0.39c0.01-0.06,0.01-0.12,0.02-0.19c0.01-0.01,0.01-0.02,0.01-0.03c0.28-1.03,1.24-1.65,2.43-2.21
			c3.9-1.84,7.53-1.82,8.12-1.81c-3.99,0-5.78,2.28-5.78,4.54c0,2.68,1.52,4.12,6.23,5.95C51.67,58.73,53.27,59.55,54.51,60.48z"/>
		
			<linearGradient id="SVGID_00000132055066778128403050000013668121614462214332_" gradientUnits="userSpaceOnUse" x1="46.3712" y1="67.4172" x2="66.9772" y2="67.4172">
			<stop  offset="0" style="stop-color:#FFEF26"/>
			<stop  offset="0.0779" style="stop-color:#FFE000"/>
			<stop  offset="0.1707" style="stop-color:#FFD300"/>
			<stop  offset="0.2663" style="stop-color:#FECB00"/>
			<stop  offset="0.3681" style="stop-color:#FDC800"/>
			<stop  offset="0.5774" style="stop-color:#F18F34"/>
			<stop  offset="0.9373" style="stop-color:#E95F32"/>
			<stop  offset="1" style="stop-color:#E3312D"/>
		</linearGradient>
		<path style="fill:url(#SVGID_00000132055066778128403050000013668121614462214332_);" d="M58.1,68.33c0,0.01,0,0.01,0,0.01v0.01
			c-0.01,0.14-0.02,0.3-0.05,0.47C58.03,69,58,69.19,57.97,69.39c-0.85,2.54-6.61,4.04-11.18,3.88c3.99,0,6.46-2,6.46-5.21
			c0-2.82-1.6-4.49-5.89-6.14c-0.34-0.12-0.67-0.24-0.98-0.37c2.01,0.75,2.63,0.52,5.83,1.73c0.78,0.3,2.17,0.85,3.66,2
			C57.85,66.8,58.09,67.88,58.1,68.33z"/>
		
			<linearGradient id="SVGID_00000101085206924153008160000009950146743368913837_" gradientUnits="userSpaceOnUse" x1="38.684" y1="47.4523" x2="58.5682" y2="47.4523">
			<stop  offset="0" style="stop-color:#FFEF26"/>
			<stop  offset="0.0595" style="stop-color:#FFE000"/>
			<stop  offset="0.1303" style="stop-color:#FFD300"/>
			<stop  offset="0.2032" style="stop-color:#FECB00"/>
			<stop  offset="0.2809" style="stop-color:#FDC800"/>
			<stop  offset="0.6685" style="stop-color:#F18F34"/>
			<stop  offset="0.8876" style="stop-color:#E95F32"/>
			<stop  offset="1" style="stop-color:#E3312D"/>
		</linearGradient>
		<path style="fill:url(#SVGID_00000101085206924153008160000009950146743368913837_);" d="M58.52,47.68
			c-0.03,0.1-0.07,0.2-0.07,0.2c-0.02,0.07-0.05,0.13-0.08,0.18c-0.03,0.06-0.07,0.12-0.11,0.18c-0.04,0.06-0.09,0.12-0.14,0.17
			c-0.05,0.06-0.11,0.12-0.16,0.16c-0.18,0.16-0.36,0.27-0.5,0.35c-0.05,0.02-0.09,0.04-0.13,0.06c-0.04,0.02-0.07,0.03-0.1,0.04
			c-0.06,0.02-0.12,0.05-0.18,0.07c-0.05,0.01-0.1,0.02-0.15,0.04c-0.01,0.01-0.02,0.01-0.04,0.01c-0.19,0.04-0.36,0.06-0.53,0.06
			c-0.05,0-0.11,0-0.16-0.01c-0.05,0-0.1-0.01-0.14-0.01c-0.29-0.04-0.5-0.1-0.59-0.14h-0.01c-0.19-0.1-0.39-0.21-0.63-0.32
			c-0.01-0.01-0.02-0.01-0.04-0.02c-0.46-0.22-1.01-0.44-1.64-0.64c-0.16-0.05-0.33-0.1-0.5-0.15c-0.15-0.04-0.29-0.08-0.45-0.12
			c-0.02-0.01-0.05-0.01-0.08-0.02c-0.15-0.04-0.36-0.08-0.62-0.12c-0.1-0.02-0.22-0.04-0.34-0.05c-0.07-0.01-0.13-0.02-0.2-0.02
			c-0.22-0.04-0.46-0.06-0.7-0.07c-0.33-0.03-0.66-0.04-1.01-0.04c-0.59-0.01-4.22-0.04-8.12,1.81c-1.19,0.56-2.15,1.18-2.43,2.21
			c0.54-4.42,4.57-6.63,5.48-7.08c0.06-0.03,0.11-0.05,0.14-0.07c1.95-0.9,3.68-0.92,5.07-0.93c0.46-0.01,0.89,0.01,1.32,0.04
			c2.64,0.19,4.71,0.98,5.93,1.55c0,0,0.04,0.01,0.04,0.01c0.08,0.02,0.15,0.04,0.24,0.07c0.06,0.02,0.12,0.04,0.18,0.07
			c0.01,0.01,0.01,0.01,0.02,0.01c0.07,0.03,0.15,0.07,0.22,0.12c0.25,0.13,0.53,0.35,0.76,0.66c0.05,0.07,0.1,0.13,0.14,0.21
			c0.04,0.05,0.07,0.11,0.09,0.16c0.05,0.1,0.12,0.24,0.16,0.4c0.02,0.08,0.04,0.16,0.05,0.24c0.01,0.01,0.01,0.02,0.01,0.04
			C58.58,47.3,58.56,47.54,58.52,47.68z"/>
		
			<linearGradient id="SVGID_00000112614127623210992340000016456163794742011265_" gradientUnits="userSpaceOnUse" x1="38.6233" y1="60.3943" x2="58.1174" y2="60.3943">
			<stop  offset="0" style="stop-color:#FFEF26"/>
			<stop  offset="0.0595" style="stop-color:#FFE000"/>
			<stop  offset="0.1303" style="stop-color:#FFD300"/>
			<stop  offset="0.2032" style="stop-color:#FECB00"/>
			<stop  offset="0.2809" style="stop-color:#FDC800"/>
			<stop  offset="0.6685" style="stop-color:#F18F34"/>
			<stop  offset="0.8876" style="stop-color:#E95F32"/>
			<stop  offset="1" style="stop-color:#E3312D"/>
		</linearGradient>
		<path style="fill:url(#SVGID_00000112614127623210992340000016456163794742011265_);" d="M58.12,67.73c0,0.1,0,0.32-0.02,0.6
			c-0.01-0.46-0.25-1.53-2.23-3.05c-1.49-1.15-2.89-1.7-3.66-2c-3.2-1.21-3.82-0.98-5.83-1.73c-0.02-0.01-0.04-0.01-0.05-0.02
			c-0.01-0.01-0.02-0.01-0.04-0.02c-1.77-0.67-4.73-1.8-6.41-4.64c-0.04-0.04-0.06-0.09-0.08-0.13c-0.02-0.04-0.05-0.09-0.08-0.14
			c-0.07-0.12-0.14-0.26-0.21-0.41c-0.26-0.56-0.56-1.33-0.73-2.27c-0.04-0.2-0.07-0.42-0.09-0.64c0-0.02,0-0.05-0.01-0.07
			c-0.02-0.25-0.03-0.5-0.03-0.76c0,0.01,0.01,0.02,0.01,0.03c0.1,0.71,0.64,2.2,4.3,3.93c2.15,1.02,2.82,0.9,6.54,2.1
			c2.71,0.87,4.15,1.33,5.05,1.96c0.06,0.04,0.12,0.08,0.17,0.13c0.13,0.1,0.25,0.2,0.37,0.3C56.86,62.51,58.1,65.01,58.12,67.73z"
			/>
		
			<linearGradient id="SVGID_00000100367700819697623430000015993066325280484742_" gradientUnits="userSpaceOnUse" x1="36.1539" y1="73.36" x2="57.9657" y2="73.36">
			<stop  offset="0" style="stop-color:#FFEF26"/>
			<stop  offset="0.0595" style="stop-color:#FFE000"/>
			<stop  offset="0.1303" style="stop-color:#FFD300"/>
			<stop  offset="0.2032" style="stop-color:#FECB00"/>
			<stop  offset="0.2809" style="stop-color:#FDC800"/>
			<stop  offset="0.6685" style="stop-color:#F18F34"/>
			<stop  offset="0.8876" style="stop-color:#E95F32"/>
			<stop  offset="1" style="stop-color:#E3312D"/>
		</linearGradient>
		<path style="fill:url(#SVGID_00000100367700819697623430000015993066325280484742_);" d="M57.97,69.39
			c-0.18,0.98-0.56,2.24-1.38,3.49c-0.01,0-0.01,0.01,0,0.01c-0.13,0.19-0.27,0.38-0.41,0.56c-0.07,0.09-0.15,0.19-0.23,0.28
			c-0.04,0.05-0.08,0.09-0.12,0.14c-0.08,0.09-0.16,0.18-0.25,0.27l-0.05,0.05c-0.1,0.1-0.21,0.21-0.32,0.31
			c-0.01,0.01-0.02,0.02-0.04,0.03c-0.11,0.1-0.22,0.19-0.33,0.29c-0.12,0.1-0.25,0.19-0.37,0.29c-0.09,0.07-0.18,0.13-0.26,0.18
			c-0.03,0.02-0.07,0.04-0.1,0.07c-0.1,0.05-0.19,0.12-0.27,0.17c-0.2,0.12-0.38,0.22-0.55,0.32c-0.01,0.01-0.02,0.01-0.04,0.02
			c-2.59,1.45-5.07,1.46-6.75,1.47h-0.1c-0.98,0-2.31-0.08-3.85-0.44c-0.12-0.03-0.25-0.05-0.25-0.05c-1.43-0.32-2.47-0.7-2.85-0.85
			c0,0-1.32-0.51-2.23-1.12c-0.14-0.09-0.26-0.2-0.26-0.2c-0.08-0.07-0.16-0.14-0.23-0.23c-0.08-0.08-0.15-0.19-0.22-0.3
			c-0.01-0.02-0.02-0.04-0.04-0.07c-0.03-0.05-0.07-0.12-0.11-0.21c-0.01-0.01-0.01-0.01-0.01-0.02c-0.04-0.09-0.08-0.18-0.1-0.28
			c-0.03-0.1-0.05-0.2-0.07-0.3c-0.02-0.1-0.02-0.19-0.02-0.29c0-0.01,0-0.01,0-0.01c0-0.09,0.01-0.18,0.02-0.27
			c0.01-0.1,0.03-0.18,0.06-0.27c0.02-0.08,0.06-0.16,0.1-0.24c0.02-0.05,0.05-0.1,0.08-0.15c0.04-0.06,0.07-0.12,0.12-0.18
			c0.1-0.13,0.2-0.24,0.3-0.32c0.05-0.05,0.12-0.1,0.18-0.14c0.06-0.04,0.13-0.08,0.19-0.12c0.1-0.05,0.17-0.09,0.21-0.11
			c0.15-0.07,0.3-0.11,0.45-0.14c0.36-0.07,0.75-0.05,1.2,0.03c0.01,0,0.01,0,0.01,0c1.47,0.28,2.36,0.99,3.06,1.4h0.01
			c1.02,0.59,2.01,0.71,3.7,0.78c0.04,0.01,0.09,0.01,0.13,0.01c0.27,0.02,0.55,0.03,0.81,0.03C51.35,73.43,57.12,71.93,57.97,69.39
			z"/>
	</g>
</g>
<linearGradient id="SVGID_00000088834889537656519100000013686471677777679489_" gradientUnits="userSpaceOnUse" x1="33.7289" y1="56.8754" x2="252.1437" y2="56.8754" gradientTransform="matrix(0.9731 0.2305 -0.2305 0.9731 -2.8939 -36.4624)">
	<stop  offset="0" style="stop-color:#FFEF26"/>
	<stop  offset="0.0595" style="stop-color:#FFE000"/>
	<stop  offset="0.1303" style="stop-color:#FFD300"/>
	<stop  offset="0.2032" style="stop-color:#FECB00"/>
	<stop  offset="0.2809" style="stop-color:#FDC800"/>
	<stop  offset="0.6685" style="stop-color:#F18F34"/>
	<stop  offset="0.8876" style="stop-color:#E95F32"/>
	<stop  offset="1" style="stop-color:#E3312D"/>
</linearGradient>
<path style="fill:url(#SVGID_00000088834889537656519100000013686471677777679489_);" d="M7.34,66.65
	c-0.07-0.23,15.75-7.18,39.96-10.98c16.58-2.6,24.88-3.91,34.53-1.06c17.1,5.04,18.21,16.6,31.21,23.42
	c33.49,17.56,94.28-23.4,91.31-33.98c-0.93-3.32-8.3-4.3-8.04-5.14c0.23-0.71,9,3.7,19.52,3.69c13.5-0.01,21.51-7.27,22.7-5.5
	c1.3,1.93-8.26,10.78-18.11,16.51c-3.73,2.17-10.08,5.74-12.57,3.72c-2.19-1.78,1.22-6.7-0.24-8.51
	c-5.29-6.56-59.27,47.36-95.96,34.06C96.3,77.31,98.97,65.4,80.75,57.18C47.81,42.31,7.46,67.03,7.34,66.65z"/>
<linearGradient id="SVGID_00000148648872918494368570000014470129645596691607_" gradientUnits="userSpaceOnUse" x1="47.0689" y1="47.8017" x2="49.4655" y2="47.8017">
	<stop  offset="0" style="stop-color:#FFEF26"/>
	<stop  offset="0.0595" style="stop-color:#FFE000"/>
	<stop  offset="0.1303" style="stop-color:#FFD300"/>
	<stop  offset="0.2032" style="stop-color:#FECB00"/>
	<stop  offset="0.2809" style="stop-color:#FDC800"/>
	<stop  offset="0.6685" style="stop-color:#F18F34"/>
	<stop  offset="0.8876" style="stop-color:#E95F32"/>
	<stop  offset="1" style="stop-color:#E3312D"/>
</linearGradient>
<path style="fill:url(#SVGID_00000148648872918494368570000014470129645596691607_);" d="M49.47,38.36v20.02
	c-0.36-0.14-0.75-0.27-1.16-0.38c-0.43-0.12-0.84-0.21-1.23-0.28V38.36c0.04-0.63,0.56-1.13,1.19-1.13
	C48.9,37.22,49.43,37.72,49.47,38.36z"/>
<linearGradient id="SVGID_00000162325306523772468110000015980426931432795776_" gradientUnits="userSpaceOnUse" x1="47.0689" y1="58.1312" x2="49.4655" y2="58.1312">
	<stop  offset="0" style="stop-color:#FFEF26"/>
	<stop  offset="0.0595" style="stop-color:#FFE000"/>
	<stop  offset="0.1303" style="stop-color:#FFD300"/>
	<stop  offset="0.2032" style="stop-color:#FECB00"/>
	<stop  offset="0.2809" style="stop-color:#FDC800"/>
	<stop  offset="0.6685" style="stop-color:#F18F34"/>
	<stop  offset="0.8876" style="stop-color:#E95F32"/>
	<stop  offset="1" style="stop-color:#E3312D"/>
</linearGradient>
<path style="fill:url(#SVGID_00000162325306523772468110000015980426931432795776_);" d="M49.47,58.38v0.16l-2.4-0.72v-0.11
	c0.39,0.07,0.8,0.16,1.23,0.28C48.71,58.11,49.1,58.24,49.47,58.38z"/>
<linearGradient id="SVGID_00000124878760754996741930000017707416436288520880_" gradientUnits="userSpaceOnUse" x1="47.0644" y1="72.5142" x2="49.4695" y2="72.5142">
	<stop  offset="0" style="stop-color:#FFEF26"/>
	<stop  offset="0.0595" style="stop-color:#FFE000"/>
	<stop  offset="0.1303" style="stop-color:#FFD300"/>
	<stop  offset="0.2032" style="stop-color:#FECB00"/>
	<stop  offset="0.2809" style="stop-color:#FDC800"/>
	<stop  offset="0.6685" style="stop-color:#F18F34"/>
	<stop  offset="0.8876" style="stop-color:#E95F32"/>
	<stop  offset="1" style="stop-color:#E3312D"/>
</linearGradient>
<path style="fill:url(#SVGID_00000124878760754996741930000017707416436288520880_);" d="M49.47,62.41V81.9
	c0.06,0.77-0.57,1.4-1.25,1.37c-0.65-0.02-1.21-0.64-1.15-1.37V61.76c0.42,0.12,0.84,0.23,1.26,0.35
	C48.71,62.21,49.09,62.31,49.47,62.41z"/>
<linearGradient id="SVGID_00000165200791100267406170000000606465406158615949_" gradientUnits="userSpaceOnUse" x1="47.0689" y1="62.081" x2="49.4655" y2="62.081">
	<stop  offset="0" style="stop-color:#FFEF26"/>
	<stop  offset="0.0595" style="stop-color:#FFE000"/>
	<stop  offset="0.1303" style="stop-color:#FFD300"/>
	<stop  offset="0.2032" style="stop-color:#FECB00"/>
	<stop  offset="0.2809" style="stop-color:#FDC800"/>
	<stop  offset="0.6685" style="stop-color:#F18F34"/>
	<stop  offset="0.8876" style="stop-color:#E95F32"/>
	<stop  offset="1" style="stop-color:#E3312D"/>
</linearGradient>
<path style="fill:url(#SVGID_00000165200791100267406170000000606465406158615949_);" d="M49.47,62.4L49.47,62.4
	c-0.38-0.1-0.75-0.19-1.13-0.3c-0.42-0.12-0.84-0.23-1.26-0.35v-0.01L49.47,62.4z"/>
<linearGradient id="SVGID_00000042719256610917178420000000846280972371278768_" gradientUnits="userSpaceOnUse" x1="46.5047" y1="62.1083" x2="50.2481" y2="62.1083">
	<stop  offset="0" style="stop-color:#FFEF26"/>
	<stop  offset="0.0595" style="stop-color:#FFE000"/>
	<stop  offset="0.1303" style="stop-color:#FFD300"/>
	<stop  offset="0.2032" style="stop-color:#FECB00"/>
	<stop  offset="0.2809" style="stop-color:#FDC800"/>
	<stop  offset="0.6685" style="stop-color:#F18F34"/>
	<stop  offset="0.8876" style="stop-color:#E95F32"/>
	<stop  offset="1" style="stop-color:#E3312D"/>
</linearGradient>
<path style="fill:url(#SVGID_00000042719256610917178420000000846280972371278768_);" d="M50.25,62.61
	c-0.26-0.07-0.52-0.14-0.78-0.21c-0.38-0.1-0.75-0.2-1.13-0.3c-0.42-0.12-0.84-0.23-1.26-0.35c-0.19-0.05-0.38-0.1-0.56-0.16
	l0.56,0.15l2.4,0.65L50.25,62.61z"/>
<linearGradient id="SVGID_00000033336578919954777600000004284832728791542717_" gradientUnits="userSpaceOnUse" x1="46.3105" y1="58.2738" x2="50.8063" y2="58.2738">
	<stop  offset="0" style="stop-color:#FFEF26"/>
	<stop  offset="0.0595" style="stop-color:#FFE000"/>
	<stop  offset="0.1303" style="stop-color:#FFD300"/>
	<stop  offset="0.2032" style="stop-color:#FECB00"/>
	<stop  offset="0.2809" style="stop-color:#FDC800"/>
	<stop  offset="0.6685" style="stop-color:#F18F34"/>
	<stop  offset="0.8876" style="stop-color:#E95F32"/>
	<stop  offset="1" style="stop-color:#E3312D"/>
</linearGradient>
<path style="fill:url(#SVGID_00000033336578919954777600000004284832728791542717_);" d="M50.81,58.95l-1.34-0.41l-2.4-0.72
	l-0.76-0.23c0.24,0.03,0.49,0.07,0.76,0.12c0.39,0.07,0.8,0.16,1.23,0.28c0.41,0.12,0.8,0.24,1.16,0.38
	C49.96,58.56,50.41,58.76,50.81,58.95z"/>
<g>
	
		<linearGradient id="SVGID_00000047031490773980356180000014123991722819635381_" gradientUnits="userSpaceOnUse" x1="89.382" y1="65.1343" x2="101.383" y2="65.1343">
		<stop  offset="0" style="stop-color:#FFEF26"/>
		<stop  offset="0.0595" style="stop-color:#FFE000"/>
		<stop  offset="0.1303" style="stop-color:#FFD300"/>
		<stop  offset="0.2032" style="stop-color:#FECB00"/>
		<stop  offset="0.2809" style="stop-color:#FDC800"/>
		<stop  offset="0.6685" style="stop-color:#F18F34"/>
		<stop  offset="0.8876" style="stop-color:#E95F32"/>
		<stop  offset="1" style="stop-color:#E3312D"/>
	</linearGradient>
	<path style="fill:url(#SVGID_00000047031490773980356180000014123991722819635381_);" d="M96.75,58.58c-1.09,0-1.95,0.19-2.78,0.69
		c-0.2,0.12-0.36,0.3-0.49,0.49l-0.79,1.22v-0.41c0-0.91-0.74-1.66-1.66-1.66h0c-0.91,0-1.66,0.74-1.66,1.66v9.46
		c0,0.91,0.74,1.66,1.66,1.66h0c0.91,0,1.66-0.74,1.66-1.66v-4.18c0-3.55,1.27-4.94,2.88-4.94c1.61,0,2.35,0.91,2.45,2.26
		c0.05,0.65,0.05,1.25,0.05,1.78v5.09c0,0.91,0.74,1.66,1.66,1.66l0,0c0.91,0,1.66-0.74,1.66-1.66v-5.54c0-1.03-0.02-1.68-0.1-2.33
		C101.02,59.93,99.46,58.58,96.75,58.58z"/>
	
		<linearGradient id="SVGID_00000020401171969194740140000014238495496657580187_" gradientUnits="userSpaceOnUse" x1="60.0783" y1="67.4866" x2="73.3518" y2="67.4866">
		<stop  offset="0" style="stop-color:#FFEF26"/>
		<stop  offset="0.0595" style="stop-color:#FFE000"/>
		<stop  offset="0.1303" style="stop-color:#FFD300"/>
		<stop  offset="0.2032" style="stop-color:#FECB00"/>
		<stop  offset="0.2809" style="stop-color:#FDC800"/>
		<stop  offset="0.6685" style="stop-color:#F18F34"/>
		<stop  offset="0.8876" style="stop-color:#E95F32"/>
		<stop  offset="1" style="stop-color:#E3312D"/>
	</linearGradient>
	<path style="fill:url(#SVGID_00000020401171969194740140000014238495496657580187_);" d="M67.66,58.58c-1.16,0-2.32,0.25-3.06,0.71
		c-0.17,0.11-0.31,0.26-0.42,0.43l-0.79,1.14v-0.29c0-0.91-0.74-1.66-1.66-1.66h0c-0.91,0-1.66,0.74-1.66,1.66v14.16
		c0,0.91,0.74,1.66,1.66,1.66h0c0.91,0,1.66-0.74,1.66-1.66v-4.75L64,70.94c0.17,0.27,0.42,0.5,0.72,0.63
		c0.7,0.29,1.68,0.46,2.51,0.46c3.29,0,6.12-2.35,6.12-6.96C73.35,61.29,71.24,58.58,67.66,58.58z M66.58,69.69
		c-1.54,0-3.19-1.03-3.19-3.94v-0.6c0-3.12,1.49-4.25,3.31-4.25c1.97,0,3.22,1.75,3.22,4.37C69.92,68.23,68.5,69.69,66.58,69.69z"/>
	
		<linearGradient id="SVGID_00000047045152578652127120000009818735106336423097_" gradientUnits="userSpaceOnUse" x1="74.6559" y1="65.3042" x2="87.1037" y2="65.3042">
		<stop  offset="0" style="stop-color:#FFEF26"/>
		<stop  offset="0.0595" style="stop-color:#FFE000"/>
		<stop  offset="0.1303" style="stop-color:#FFD300"/>
		<stop  offset="0.2032" style="stop-color:#FECB00"/>
		<stop  offset="0.2809" style="stop-color:#FDC800"/>
		<stop  offset="0.6685" style="stop-color:#F18F34"/>
		<stop  offset="0.8876" style="stop-color:#E95F32"/>
		<stop  offset="1" style="stop-color:#E3312D"/>
	</linearGradient>
	<path style="fill:url(#SVGID_00000047045152578652127120000009818735106336423097_);" d="M81.9,58.62
		c-4.22-0.46-7.57,3.35-7.22,7.58c0.32,3.91,2.91,5.82,6.18,5.82c2.87,0,5.19-1.39,5.96-4.12c0.05-0.18-0.1-0.37-0.29-0.37l-2.7,0
		c-0.14,0-0.25,0.1-0.28,0.23c-0.29,1.23-1.28,1.93-2.62,1.93c-1.47,0-2.63-0.77-2.92-3.2c-0.02-0.17,0.12-0.33,0.29-0.33l8.75,0
		c0.05-0.43,0.05-0.82,0.05-1.13C87.1,61.8,85.31,58.99,81.9,58.62z M78.43,64.01c-0.18,0-0.32-0.17-0.29-0.35
		c0.36-1.87,1.4-2.75,2.85-2.75c1.49,0,2.39,0.96,2.67,2.75c0.03,0.18-0.12,0.34-0.29,0.34L78.43,64.01z"/>
	
		<linearGradient id="SVGID_00000066493869717155284090000001818644515493761951_" gradientUnits="userSpaceOnUse" x1="103.4221" y1="63.0339" x2="116.6945" y2="63.0339">
		<stop  offset="0" style="stop-color:#FFEF26"/>
		<stop  offset="0.0595" style="stop-color:#FFE000"/>
		<stop  offset="0.1303" style="stop-color:#FFD300"/>
		<stop  offset="0.2032" style="stop-color:#FECB00"/>
		<stop  offset="0.2809" style="stop-color:#FDC800"/>
		<stop  offset="0.6685" style="stop-color:#F18F34"/>
		<stop  offset="0.8876" style="stop-color:#E95F32"/>
		<stop  offset="1" style="stop-color:#E3312D"/>
	</linearGradient>
	<path style="fill:url(#SVGID_00000066493869717155284090000001818644515493761951_);" d="M113.38,60.62l-0.61-0.96
		c-0.17-0.27-0.42-0.5-0.72-0.63c-0.7-0.29-1.68-0.46-2.51-0.46c-3.29,0-6.12,2.33-6.12,6.96c0,3.77,2.11,6.48,5.69,6.48
		c1.15,0,2.3-0.26,3.04-0.71c0.18-0.11,0.33-0.27,0.45-0.45l0.78-1.15v0.31c0,0.91,0.74,1.66,1.66,1.66l0,0
		c0.91,0,1.66-0.74,1.66-1.66V55.7c0-0.91-0.74-1.66-1.66-1.66l0,0c-0.91,0-1.66,0.74-1.66,1.66V60.62z M113.38,65.45
		c0,3.12-1.49,4.25-3.31,4.25c-1.97,0-3.22-1.75-3.22-4.37c0-2.95,1.42-4.42,3.34-4.42c1.54,0,3.19,1.03,3.19,3.91V65.45z"/>
	
		<linearGradient id="SVGID_00000018946197841356435850000002160862625752936864_" gradientUnits="userSpaceOnUse" x1="120.3889" y1="57.6971" x2="138.2473" y2="57.6971">
		<stop  offset="0" style="stop-color:#FFEF26"/>
		<stop  offset="0.0595" style="stop-color:#FFE000"/>
		<stop  offset="0.1303" style="stop-color:#FFD300"/>
		<stop  offset="0.2032" style="stop-color:#FECB00"/>
		<stop  offset="0.2809" style="stop-color:#FDC800"/>
		<stop  offset="0.6685" style="stop-color:#F18F34"/>
		<stop  offset="0.8876" style="stop-color:#E95F32"/>
		<stop  offset="1" style="stop-color:#E3312D"/>
	</linearGradient>
	<path style="fill:url(#SVGID_00000018946197841356435850000002160862625752936864_);" d="M127.73,56.57l-1.88-11.48
		c-0.13-0.8-0.82-1.39-1.63-1.39h-2.17c-0.91,0-1.66,0.74-1.66,1.66v24.67c0,0.91,0.74,1.66,1.66,1.66l0,0
		c0.91,0,1.66-0.74,1.66-1.66V58.75c0-2.92,0-6.61-0.05-9.53c0.38,2.88,0.98,6.61,1.49,9.45l2.13,11.66
		c0.14,0.79,0.83,1.36,1.63,1.36h0.83c0.8,0,1.49-0.57,1.63-1.36l2.08-11.61c0.53-2.88,1.13-6.61,1.54-9.53
		c-0.05,2.92-0.05,6.65-0.05,9.57v11.28c0,0.91,0.74,1.66,1.66,1.66l0,0c0.91,0,1.66-0.74,1.66-1.66V45.36
		c0-0.91-0.74-1.66-1.66-1.66h-2.07c-0.81,0-1.5,0.59-1.63,1.39L131,56.57C130.7,58.42,128.04,58.42,127.73,56.57z"/>
	
		<linearGradient id="SVGID_00000108273224132847175700000015779021014473664662_" gradientUnits="userSpaceOnUse" x1="140.5725" y1="65.3022" x2="151.7735" y2="65.3022">
		<stop  offset="0" style="stop-color:#FFEF26"/>
		<stop  offset="0.0595" style="stop-color:#FFE000"/>
		<stop  offset="0.1303" style="stop-color:#FFD300"/>
		<stop  offset="0.2032" style="stop-color:#FECB00"/>
		<stop  offset="0.2809" style="stop-color:#FDC800"/>
		<stop  offset="0.6685" style="stop-color:#F18F34"/>
		<stop  offset="0.8876" style="stop-color:#E95F32"/>
		<stop  offset="1" style="stop-color:#E3312D"/>
	</linearGradient>
	<path style="fill:url(#SVGID_00000108273224132847175700000015779021014473664662_);" d="M151.71,64.32c0-0.7-0.02-1.37-0.07-1.97
		c-0.19-2.21-1.54-3.77-5.11-3.77c-2.11,0-3.87,0.78-4.79,2.21c-0.63,0.99,0.16,2.29,1.33,2.28l0,0c0.61,0,1.17-0.36,1.39-0.93
		c0.3-0.81,0.96-1.24,1.95-1.24c1.3,0,1.87,0.65,1.97,1.54c0.05,0.43,0.05,0.82,0.05,1.2v0.26h-0.82c-4.63,0-7.03,1.58-7.03,4.39
		c0,2.42,1.9,3.72,4.1,3.72c1.02,0,1.95-0.17,2.76-0.59c0.28-0.15,0.48-0.4,0.61-0.68l0.42-0.93l0.07,0.54
		c0.1,0.76,0.75,1.33,1.51,1.33h0.2c0.88,0,1.59-0.75,1.52-1.63c-0.05-0.58-0.06-1.08-0.06-1.61V64.32z M148.42,66.98
		c0,1.78-1.13,2.71-2.47,2.71c-1.18,0-1.94-0.53-1.94-1.66c0-1.68,1.78-2.28,4.42-2.09V66.98z"/>
	
		<linearGradient id="SVGID_00000116951952652248461440000000376624813482494341_" gradientUnits="userSpaceOnUse" x1="153.5568" y1="63.9102" x2="161.3811" y2="63.9102">
		<stop  offset="0" style="stop-color:#FFEF26"/>
		<stop  offset="0.0595" style="stop-color:#FFE000"/>
		<stop  offset="0.1303" style="stop-color:#FFD300"/>
		<stop  offset="0.2032" style="stop-color:#FECB00"/>
		<stop  offset="0.2809" style="stop-color:#FDC800"/>
		<stop  offset="0.6685" style="stop-color:#F18F34"/>
		<stop  offset="0.8876" style="stop-color:#E95F32"/>
		<stop  offset="1" style="stop-color:#E3312D"/>
	</linearGradient>
	<path style="fill:url(#SVGID_00000116951952652248461440000000376624813482494341_);" d="M157.81,55.87h-1.44
		c-0.52,0-0.94,0.42-0.94,0.94v1.27c0,0.52-0.42,0.94-0.94,0.94l0,0c-0.52,0-0.94,0.42-0.94,0.94v0.31c0,0.52,0.42,0.94,0.94,0.94
		l0,0c0.52,0,0.94,0.42,0.94,0.94v5.35c0,0.72,0,1.27,0.05,1.85c0.14,1.8,1.03,2.62,3.5,2.62c0.45,0,0.88-0.02,1.32-0.06
		c0.49-0.05,0.87-0.45,0.87-0.94v-0.37c0-0.5-0.4-0.92-0.9-0.93c-1.11-0.03-1.42-0.41-1.5-1.42c-0.02-0.34-0.02-0.7-0.02-1.13v-4.97
		c0-0.52,0.42-0.94,0.94-0.94h0.77c0.52,0,0.94-0.42,0.94-0.94v-0.31c0-0.52-0.42-0.94-0.94-0.94h-0.77c-0.52,0-0.94-0.42-0.94-0.94
		v-1.27C158.74,56.29,158.32,55.87,157.81,55.87z"/>
	
		<linearGradient id="SVGID_00000036219066854917025340000004163851596111877775_" gradientUnits="userSpaceOnUse" x1="162.3747" y1="65.3041" x2="174.8225" y2="65.3041">
		<stop  offset="0" style="stop-color:#FFEF26"/>
		<stop  offset="0.0595" style="stop-color:#FFE000"/>
		<stop  offset="0.1303" style="stop-color:#FFD300"/>
		<stop  offset="0.2032" style="stop-color:#FECB00"/>
		<stop  offset="0.2809" style="stop-color:#FDC800"/>
		<stop  offset="0.6685" style="stop-color:#F18F34"/>
		<stop  offset="0.8876" style="stop-color:#E95F32"/>
		<stop  offset="1" style="stop-color:#E3312D"/>
	</linearGradient>
	<path style="fill:url(#SVGID_00000036219066854917025340000004163851596111877775_);" d="M169.62,58.62
		c-4.22-0.46-7.57,3.35-7.22,7.58c0.32,3.91,2.91,5.82,6.18,5.82c2.87,0,5.19-1.39,5.96-4.12c0.05-0.18-0.1-0.37-0.29-0.37l-2.7,0
		c-0.14,0-0.25,0.1-0.28,0.23c-0.29,1.23-1.28,1.93-2.62,1.93c-1.47,0-2.63-0.77-2.92-3.2c-0.02-0.17,0.12-0.33,0.29-0.33l8.75,0
		c0.05-0.43,0.05-0.82,0.05-1.13C174.82,61.8,173.03,58.99,169.62,58.62z M166.14,64.01c-0.18,0-0.32-0.17-0.29-0.35
		c0.36-1.87,1.4-2.75,2.85-2.75c1.49,0,2.39,0.96,2.67,2.75c0.03,0.18-0.12,0.34-0.29,0.34L166.14,64.01z"/>
	
		<linearGradient id="SVGID_00000111873405604238517880000008029523331752025786_" gradientUnits="userSpaceOnUse" x1="177.7248" y1="57.6971" x2="190.3264" y2="57.6971">
		<stop  offset="0" style="stop-color:#FFEF26"/>
		<stop  offset="0.0595" style="stop-color:#FFE000"/>
		<stop  offset="0.1303" style="stop-color:#FFD300"/>
		<stop  offset="0.2032" style="stop-color:#FECB00"/>
		<stop  offset="0.2809" style="stop-color:#FDC800"/>
		<stop  offset="0.6685" style="stop-color:#F18F34"/>
		<stop  offset="0.8876" style="stop-color:#E95F32"/>
		<stop  offset="1" style="stop-color:#E3312D"/>
	</linearGradient>
	<path style="fill:url(#SVGID_00000111873405604238517880000008029523331752025786_);" d="M185.86,43.91
		c-0.82-0.16-1.44-0.2-2.4-0.2h-4.08c-0.91,0-1.66,0.74-1.66,1.66v24.67c0,0.91,0.74,1.66,1.66,1.66l0,0c0.91,0,1.66-0.74,1.66-1.66
		V62.8c0-0.91,0.74-1.66,1.66-1.66h0.77c0.96,0,1.58-0.04,2.4-0.2c2.4-0.49,4.46-3.37,4.46-8.52S188.38,44.4,185.86,43.91z
		 M184.88,56.6c-0.36,0.08-0.86,0.12-1.46,0.12h-0.72c-0.91,0-1.66-0.74-1.66-1.66v-5.28c0-0.91,0.74-1.66,1.66-1.66h0.72
		c0.6,0,1.1,0.04,1.46,0.12c1.15,0.28,1.97,1.54,1.97,4.18S186.03,56.32,184.88,56.6z"/>
	
		<linearGradient id="SVGID_00000098183427629956691900000009538964448112157083_" gradientUnits="userSpaceOnUse" x1="192.052" y1="65.1462" x2="199.4934" y2="65.1462">
		<stop  offset="0" style="stop-color:#FFEF26"/>
		<stop  offset="0.0595" style="stop-color:#FFE000"/>
		<stop  offset="0.1303" style="stop-color:#FFD300"/>
		<stop  offset="0.2032" style="stop-color:#FECB00"/>
		<stop  offset="0.2809" style="stop-color:#FDC800"/>
		<stop  offset="0.6685" style="stop-color:#F18F34"/>
		<stop  offset="0.8876" style="stop-color:#E95F32"/>
		<stop  offset="1" style="stop-color:#E3312D"/>
	</linearGradient>
	<path style="fill:url(#SVGID_00000098183427629956691900000009538964448112157083_);" d="M196.41,59.43
		c-0.03,0.02-0.05,0.05-0.07,0.09l-0.98,1.73v-2.04c0-0.16-0.13-0.29-0.29-0.29h-2.73c-0.16,0-0.29,0.13-0.29,0.29v12.19
		c0,0.16,0.13,0.29,0.29,0.29h2.73c0.16,0,0.29-0.13,0.29-0.29v-5.56c0-3.3,1.27-4.56,3.82-4.48c0.16,0.01,0.31-0.12,0.31-0.29V58.7
		c-0.29-0.07-0.55-0.1-0.94-0.1C197.85,58.61,197.03,58.88,196.41,59.43z"/>
	
		<linearGradient id="SVGID_00000160173862005415237390000014274860761817811617_" gradientUnits="userSpaceOnUse" x1="200.1897" y1="65.3022" x2="213.4387" y2="65.3022">
		<stop  offset="0" style="stop-color:#FFEF26"/>
		<stop  offset="0.0595" style="stop-color:#FFE000"/>
		<stop  offset="0.1303" style="stop-color:#FFD300"/>
		<stop  offset="0.2032" style="stop-color:#FECB00"/>
		<stop  offset="0.2809" style="stop-color:#FDC800"/>
		<stop  offset="0.6685" style="stop-color:#F18F34"/>
		<stop  offset="0.8876" style="stop-color:#E95F32"/>
		<stop  offset="1" style="stop-color:#E3312D"/>
	</linearGradient>
	<path style="fill:url(#SVGID_00000160173862005415237390000014274860761817811617_);" d="M206.81,58.58
		c-4.25,0-6.62,2.83-6.62,6.72c0,3.86,2.38,6.72,6.62,6.72c4.25,0,6.62-2.86,6.62-6.72C213.44,61.41,211.06,58.58,206.81,58.58z
		 M206.81,69.69c-1.99,0-3.19-1.66-3.19-4.39c0-2.76,1.2-4.39,3.19-4.39s3.19,1.63,3.19,4.39
		C210.01,68.04,208.81,69.69,206.81,69.69z"/>
</g>
</svg>
