<!--?xml version="1.0" standalone="no"?-->              <svg id="sw-js-blob-svg" viewBox="0 0 100 100" xmlns="http://www.w3.org/2000/svg">                    <defs>                         <linearGradient id="sw-gradient" x1="0" x2="1" y1="1" y2="0">                            <stop id="stop1" stop-color="rgba(246.587, 246.587, 246.587, 0.57)" offset="0%"></stop>                            <stop id="stop2" stop-color="rgba(255, 255, 255, 0.9)" offset="100%"></stop>                        </linearGradient>                    </defs>                <path fill="url(#sw-gradient)" d="M18.9,-33.4C25.3,-29.1,31.8,-25.6,35.8,-20.2C39.7,-14.7,41.1,-7.4,39.4,-1C37.6,5.3,32.7,10.7,29.5,17.4C26.2,24,24.6,32,20,35.4C15.4,38.9,7.7,37.8,0.9,36.4C-6,34.9,-12,33,-18.8,30.8C-25.6,28.6,-33.3,26.1,-37.2,21C-41.2,15.8,-41.4,7.9,-39.7,1C-38,-5.9,-34.5,-11.9,-30.1,-16.3C-25.7,-20.7,-20.5,-23.6,-15.3,-28.6C-10.2,-33.6,-5.1,-40.8,0.6,-41.9C6.3,-42.9,12.6,-37.8,18.9,-33.4Z" width="100%" height="100%" transform="translate(50 50)" stroke-width="0" style="transition: all 0.3s ease 0s;" stroke="url(#sw-gradient)"></path>              </svg>